<?xml version="1.0" encoding="utf-8"?>
<!-- Generator: Adobe Illustrator 24.0.1, SVG Export Plug-In . SVG Version: 6.00 Build 0)  -->
<svg version="1.1" id="Layer_1" xmlns="http://www.w3.org/2000/svg" xmlns:xlink="http://www.w3.org/1999/xlink" x="0px" y="0px"
	 viewBox="0 0 335.9 95.1" style="enable-background:new 0 0 335.9 95.1;" xml:space="preserve">
<style type="text/css">
	.st0{fill:#FFFFFF;}
</style>
<title>Untitled-1</title>
<g>
	<path class="st0" d="M331.9,45c0-0.3,0-0.6,0-0.9c0-3.9-0.5-7.7-1.6-11.4c-0.3-0.3-0.7-0.6-1-0.9c0,0.2-0.1,0.3-0.1,0.5
		c-0.1,0.5-0.2,0.9-0.3,1.4c-0.1,0.5-0.2,1-0.3,1.4l-0.3,1.4c0,0.2-0.1,0.5-0.2,0.7s-0.1,0.5-0.2,0.7c-0.1,0.5-0.3,1-0.4,1.5
		s-0.3,1-0.4,1.5c-0.1,0.2-0.1,0.5-0.2,0.7l-0.2,0.7l-0.5,1.5l-0.5,1.5l-0.3,0.7c-0.1,0.3-0.2,0.5-0.3,0.7c-0.2,0.4-0.3,0.9-0.5,1.3
		c0.5-0.2,1-0.4,1.4-0.6C328.1,46.7,330.1,45.8,331.9,45z"/>
	<path class="st0" d="M312.7,48.4c0-1-0.1-2.1-0.2-3.1c-0.1-0.5-0.1-1-0.2-1.6c0-0.3-0.1-0.5-0.1-0.8l-0.1-0.8
		c-0.6-4.1-1.6-8.2-2.9-12.2c-0.6-2-1.3-3.9-2.1-5.8l-0.3-0.7l-0.3-0.7l-0.6-1.4c-0.2-0.4-0.4-0.9-0.6-1.3c-0.1-0.2-0.2-0.5-0.3-0.7
		l-0.3-0.7c-0.3,0.1-0.6,0.1-0.9,0.1c-2.1,0-4-1.3-4.8-3.2c-1.1,0.4-2.2,0.8-3.3,1.3c-1.7,0.8-3.5,1.6-5.2,2.5s-3.4,2-5.1,3.1
		s-3.3,2.4-4.9,3.7s-3.1,2.7-4.6,4.2c-0.7,0.7-1.4,1.5-2.1,2.2l-1,1.2l-0.5,0.6l-0.5,0.6c-2.1,2.6-4.1,5.3-5.9,8.2
		c0.5,0.8,0.7,1.7,0.7,2.6c0,0.6-0.1,1.2-0.3,1.7l0.7,0.3c1.8,0.8,3.7,1.6,5.6,2.2c1.9,0.7,3.9,1.2,5.9,1.7s4.1,0.9,6.1,1.2
		c1,0.2,2.1,0.3,3.1,0.4l1.6,0.1h0.8h0.8c4.2,0.2,8.3,0.1,12.5-0.4c2.1-0.2,4.1-0.5,6.1-0.9h0.7h0.1c0.2-1.3,1.2-2.4,2.4-2.8
		C312.8,49.1,312.8,48.8,312.7,48.4z"/>
	<path class="st0" d="M311.1,67.3c0-0.2,0.1-0.4,0.1-0.6c0.4-1.9,0.8-3.9,1.1-5.9c0.2-1.5,0.3-3.1,0.4-4.6c-0.5-0.2-1-0.5-1.4-0.9
		l-0.5,0.1l-0.8,0.1c-2.1,0.3-4.2,0.6-6.3,0.7c-4.3,0.4-8.6,0.4-12.9,0l-0.8-0.1c-0.3,0-0.5,0-0.8-0.1l-1.6-0.2
		c-1.1-0.2-2.1-0.3-3.2-0.5c-2.1-0.4-4.2-0.9-6.3-1.4s-4.1-1.2-6-2c-1.9-0.7-3.8-1.6-5.6-2.5l-0.8-0.4c-0.1,0.2-0.3,0.4-0.5,0.5
		c0.7,0.9,1.3,1.9,2,2.8c1.2,1.6,2.6,3.1,4,4.6s2.9,2.9,4.5,4.3c0.8,0.7,1.6,1.3,2.4,2l1.2,1l0.6,0.5l0.6,0.5
		c3.4,2.4,6.9,4.5,10.6,6.4c1.8,0.9,3.7,1.7,5.6,2.5l0.7,0.3l0.7,0.3l1.4,0.5l1.4,0.5l0.7,0.2l0.7,0.2l0.6,0.2
		c1.2-1.1,2.5-2.4,3.6-3.6c1.4-1.5,2.7-3.1,4-4.8L311.1,67.3z"/>
	<path class="st0" d="M269.5,32.2c0.2-0.2,0.4-0.4,0.6-0.6l1.1-1.2c0.8-0.8,1.6-1.5,2.4-2.2c1.6-1.5,3.3-2.9,5-4.1
		c1.7-1.3,3.5-2.5,5.3-3.6s3.6-2.1,5.5-3c1.8-0.9,3.7-1.7,5.6-2.4c1.2-0.5,2.5-0.9,3.7-1.2v-0.1l-1.5-0.4c-1-0.3-2-0.6-3-0.8
		c-2-0.5-4.1-0.9-6.1-1.1S284,11,282,10.9s-4,0-6,0s-3.9,0.3-5.8,0.6c-1.7,0.3-3.3,0.6-4.9,1c-4.1,3.4-7.5,7.5-10,12.1
		c0.1,0.9,0.3,1.9,0.5,2.9c0.1,0.8,0.3,1.6,0.5,2.4c0,0.1,0,0.2,0.1,0.3c0,0.1,0,0.2,0.1,0.3l0.2,0.6l0.2,0.6c0,0.1,0,0.2,0.1,0.3
		l0.1,0.3c0.1,0.4,0.2,0.8,0.4,1.2c0,0.1,0,0.2,0.1,0.3l0.1,0.3c0.1,0.2,0.1,0.4,0.2,0.6c0.3,0.8,0.6,1.7,0.9,2.5
		c0.5,1.3,1.1,2.6,1.8,4c0.5-0.1,0.9-0.2,1.4-0.2c0.2,0,0.4,0,0.6,0c2-2.9,4.3-5.7,6.7-8.3L269.5,32.2z"/>
	<path class="st0" d="M305.3,76.9l0.7,0.2l0.7,0.2l0.9,0.2c0.7-1.6,1.4-3.2,2-5c-0.4,0.5-0.9,0.9-1.3,1.4c-1,1-2,2-3,2.9L305.3,76.9
		z"/>
	<path class="st0" d="M317.3,54.1c-0.4,1.1-1.4,2-2.6,2.2c-0.2,1.6-0.4,3.2-0.6,4.8c-0.2,0.9-0.3,1.8-0.5,2.7
		c0.1-0.2,0.2-0.4,0.4-0.6l0.4-0.7c1.8-2.9,3.4-5.9,4.8-8.9l0,0l-1.5,0.4L317.3,54.1z"/>
	<path class="st0" d="M269.8,9.9c1.9-0.4,3.9-0.7,5.9-0.9s4.1-0.3,6.2-0.3s4.2,0.1,6.3,0.3s4.3,0.5,6.4,0.9c1.1,0.2,2.1,0.4,3.2,0.7
		l1.5,0.4c0.2-0.3,0.3-0.5,0.5-0.7c-0.3-0.4-0.5-0.8-0.8-1.2c-1.3-2-2.6-3.8-3.9-5.6c-1.4-0.2-2.8-0.2-4.2-0.2
		c-8.1,0-16.1,2.4-22.8,7L269.8,9.9z"/>
	<path class="st0" d="M320.8,49.4c0.5-1.2,0.9-2.5,1.3-3.7l0.2-0.7c0.1-0.2,0.2-0.5,0.2-0.7c0.1-0.5,0.3-1,0.4-1.4l0.4-1.4
		c0-0.2,0.1-0.5,0.2-0.7s0.1-0.5,0.2-0.7c0.1-0.5,0.2-0.9,0.4-1.4c0.1-0.5,0.2-0.9,0.3-1.4c0.1-0.2,0.1-0.5,0.2-0.7
		c0-0.2,0.1-0.5,0.1-0.7c0.1-0.5,0.2-0.9,0.3-1.4c0.1-0.5,0.2-0.9,0.2-1.4s0.2-0.9,0.2-1.4c0.1-0.9,0.3-1.8,0.4-2.7l0,0l-0.8-0.6
		l-0.6-0.5l-0.6-0.4l-1.1-0.9l-1.2-0.9l-0.6-0.4l-0.6-0.4l-1.2-0.9l-1.2-0.8l-0.6-0.4l-0.6-0.4c-1.7-1.1-3.5-2.1-5.3-3.1
		c-1.2-0.7-2.5-1.3-3.8-1.9l0,0c0.1,0.2,0.2,0.5,0.3,0.7l0.3,0.7l0.6,1.4l0.6,1.5c0.1,0.2,0.2,0.5,0.3,0.7c0.1,0.2,0.2,0.5,0.3,0.7
		c0.7,2,1.4,4,2,6c1.2,4.2,2,8.4,2.5,12.7l0.1,0.8c0,0.3,0,0.5,0.1,0.8l0.1,1.6c0,1.1,0.1,2.2,0.1,3.2c0,0.3,0,0.7,0,1
		c0.7,0.2,1.4,0.7,1.8,1.3l1.3-0.4l0.7-0.2l0.7-0.2L320.8,49.4z"/>
	<path class="st0" d="M305.6,81.5h-0.2l-0.7-0.2L304,81l-1.4-0.5l-1.2-0.5c-0.9,0.7-1.8,1.3-2.7,1.9c-1.5,1-3.1,2-4.6,2.8
		c3.8-0.3,7.5-1.1,11-2.4l0.1-0.2L305.6,81.5z"/>
	<path class="st0" d="M291,84.9L291,84.9c0.6-0.3,1.2-0.7,1.8-1c1.6-1,3.3-2.1,4.8-3.2c0.6-0.4,1.1-0.9,1.7-1.3l-1.2-0.5l-1.4-0.6
		L296,78l-0.7-0.3c-1.9-0.9-3.8-1.8-5.7-2.9c-3.8-2.1-7.4-4.5-10.8-7.2l-0.6-0.5l-0.6-0.5l-1.2-1.1c-0.8-0.7-1.6-1.4-2.4-2.2
		c-1.6-1.5-3.1-3-4.4-4.7c-1.4-1.6-2.7-3.3-4-5c-0.7-1-1.4-2-2-3c-0.5,0.2-1.1,0.3-1.6,0.3l-0.2,0.5c-0.1,0.2-0.2,0.5-0.3,0.7
		c-0.2,0.5-0.4,0.9-0.6,1.4l-0.6,1.4c-0.1,0.2-0.2,0.5-0.3,0.7l-0.3,0.7l-0.5,1.4l-0.5,1.4c-0.1,0.2-0.2,0.4-0.2,0.7
		s-0.2,0.4-0.2,0.7c-0.2,0.4-0.3,0.9-0.5,1.3c-0.1,0.4-0.3,0.9-0.4,1.3c-0.1,0.4-0.3,0.9-0.4,1.3s-0.3,0.9-0.4,1.4
		C263.8,77.6,276.9,84.9,291,84.9z"/>
	<path class="st0" d="M331.5,49.5c-1.3,0.5-2.7,1.1-4.1,1.6c-0.9,0.3-1.8,0.6-2.7,0.9c-0.5,0.2-0.9,0.3-1.4,0.4l-0.6,0.2l0,0
		c-1.8,3.9-3.9,7.7-6.3,11.3l-0.5,0.7c-0.2,0.2-0.3,0.4-0.5,0.7l-1,1.3c-0.7,0.9-1.3,1.7-2,2.6c-0.2,0.2-0.4,0.5-0.6,0.7
		c-0.3,1-0.7,2-1,2.9c-0.7,1.7-1.4,3.4-2.2,5l0.7,0.2c0.5,0.1,0.9,0.2,1.4,0.3l2,0.4C323,72.2,329.9,61.5,331.5,49.5z"/>
	<path class="st0" d="M251.2,37.3l0.2,0.2l0.2,0.2l0.5,0.4l0.5,0.4l0.2,0.2L253,39l1,0.8l0.2,0.2l0.3,0.2l0.5,0.4
		c0.7,0.6,1.4,1.1,2.1,1.6l0.8,0.5c0.3-0.3,0.6-0.6,0.9-0.8c-0.6-1.4-1.1-2.8-1.6-4.2c-0.3-0.9-0.6-1.7-0.8-2.6
		c-0.1-0.2-0.1-0.4-0.2-0.6c-0.1-0.2-0.1-0.2-0.1-0.3S256,34,256,33.9c-0.1-0.4-0.2-0.9-0.3-1.3c0-0.1,0-0.2-0.1-0.3l-0.1-0.3
		c0-0.2-0.1-0.4-0.1-0.6l-0.1-0.6c0-0.1-0.1-0.2-0.1-0.3c0-0.1,0-0.2,0-0.3c-0.2-0.8-0.3-1.6-0.4-2.4c-0.1-0.6-0.2-1.2-0.3-1.8
		c-1.7,3.5-3,7.3-3.6,11.1L251.2,37.3z"/>
	<path class="st0" d="M253.3,57.7l0.3-0.7l0.6-1.4l0.6-1.4c0.1-0.2,0.2-0.5,0.3-0.7s0.2-0.5,0.3-0.7c0.2-0.5,0.5-0.9,0.7-1.4
		s0.5-0.9,0.7-1.4l0.4-0.7l0.3-0.5c-0.5-0.8-0.8-1.8-0.8-2.7c0-0.8,0.2-1.5,0.5-2.2l-0.8-0.6c-0.7-0.6-1.5-1.1-2.1-1.7l-0.5-0.5
		l-0.2-0.2l-0.3-0.2l-1-0.8l-0.2-0.2l-0.2-0.2l-0.5-0.4c-0.1-0.2-0.3-0.3-0.5-0.4l-0.2-0.2l-0.2-0.2c-0.3,2-0.4,4-0.4,6
		c0,5,0.9,10,2.7,14.7l0.1-0.3C253.1,58.2,253.2,57.9,253.3,57.7z"/>
	<path class="st0" d="M302.3,7c0.3,0.5,0.6,1,0.9,1.5c0.2,0,0.4,0,0.6,0c2.2,0,4.2,1.4,4.9,3.4c0.6-0.1,1.3-0.1,1.9-0.2
		c1.7-0.1,3.3-0.2,4.9-0.2c-4.4-3.4-9.5-5.8-14.9-7.1C301.3,5.2,301.8,6.1,302.3,7z"/>
	<path class="st0" d="M309.1,13c0,0.2,0,0.4,0,0.6c0,0.2,0,0.3,0,0.5c1.4,0.6,2.7,1.1,4.1,1.8c1.9,0.9,3.8,1.9,5.7,2.9l0.7,0.4
		l0.7,0.4l1.3,0.8l1.3,0.8l0.6,0.4l0.6,0.4l1.3,0.9c0.4,0.2,0.7,0.4,1.1,0.7l0,0c-2.6-4.4-5.9-8.3-9.9-11.4
		c-1.8,0.1-3.8,0.2-5.9,0.5C310.2,12.8,309.6,12.9,309.1,13z"/>
</g>
<g>
	<path class="st0" d="M37.4,18.5c0-10,6.4-14.8,15.2-14.8c8,0,15.2,3,15.2,12.6V22H56.6v-5.1c0-2.6-1.1-4-3.7-4
		c-3.1,0-3.7,3.1-3.7,4.7V43c0,1.3,0,4.7,3.4,4.7c2.6,0,3.8-1.2,3.8-3.9V37h-4.2v-9.5h15.6v28.2H57.5v-4.2h-0.1
		c-2.1,3.5-4.9,5-9.1,5c-8.5,0-10.8-7.1-10.8-14.8V18.5H37.4z"/>
	<path class="st0" d="M73.1,4.5h11.8v41.4h12.8v9.9H73.1V4.5z"/>
	<path class="st0" d="M101.6,18.5c0-10,6.4-14.8,15.2-14.8S132,8.5,132,18.5v23.3c0,9.1-5.8,14.8-15.2,14.8s-15.2-5.7-15.2-14.8
		C101.6,41.8,101.6,18.5,101.6,18.5z M113.4,42.8c0,1.3,0,4.7,3.4,4.7s3.4-3.3,3.4-4.7V17.5c0-1.7,0-4.7-3.4-4.7s-3.4,3-3.4,4.7
		V42.8z"/>
	<path class="st0" d="M137.3,4.5h16.4c8.6,0,12.8,3.3,12.8,12.1c0,5.4-0.8,10.1-6.5,12.1v0.1c5.8,1,7.8,5.3,7.8,11.8
		c0,8.6-3.1,15.2-13.7,15.2h-16.8V4.5z M149.1,24.8h2.2c3.7,0,4.1-2.8,4.1-6c0-3.6-0.8-5.6-3.7-5.6h-2.6V24.8z M149.1,47.1h2.4
		c3.9,0,4.4-1.9,4.4-7c0-3.5-0.4-6.9-4.1-6.9h-2.7L149.1,47.1L149.1,47.1z"/>
	<path class="st0" d="M180.3,4.5H196l9.6,51.3h-12.4l-1.1-9.1h-8.3l-1.2,9.1h-11.8L180.3,4.5z M185,37.6h5.9l-2.8-25.1H188L185,37.6
		z"/>
	<path class="st0" d="M208.6,4.5h11.8v41.4h12.8v9.9h-24.7L208.6,4.5L208.6,4.5z"/>
</g>
<g>
	<path class="st0" d="M5.5,63.6h6.9v11.2h4V63.6h6.9v30h-6.9V80.8h-4v12.8H5.5V63.6z"/>
	<path class="st0" d="M26.4,71.8c0-5.9,3.8-8.7,8.9-8.7c5.1,0,8.9,2.8,8.9,8.7v13.6c0,5.3-3.4,8.7-8.9,8.7c-5.5,0-8.9-3.3-8.9-8.7
		V71.8z M33.3,86c0,0.8,0,2.7,2,2.7c2,0,2-2,2-2.7V71.2c0-1,0-2.7-2-2.7c-2,0-2,1.7-2,2.7V86z"/>
	<path class="st0" d="M47.5,63.6h10.9l2,14.9h0.1l2-14.9h10.9v30h-6.7V70.3h-0.1l-3.9,23.3h-4.5l-3.9-23.3h-0.1v23.3h-6.7V63.6z"/>
	<path class="st0" d="M76.6,63.6h15.4v5.8h-8.5v6h7.4v5.8h-7.4v6.7h8.8v5.8H76.6V63.6z"/>
	<path class="st0" d="M104.7,63.6h6.9v24.2h7.5v5.8h-14.4V63.6z"/>
	<path class="st0" d="M121.4,63.6h15.4v5.8h-8.5v6h7.4v5.8h-7.4v6.7h8.8v5.8h-15.7V63.6z"/>
	<path class="st0" d="M140.2,63.6h7.6l5.6,17.7h0.1V63.6h6.7v30h-7.5L147,75h-0.1v18.6h-6.7V63.6z"/>
	<path class="st0" d="M163.2,63.6h10.3c5.9,0,7.5,3.4,7.5,8v14.3c0,5.5-3.9,7.7-7.5,7.7h-10.3V63.6z M170.1,88.5h1.1
		c1.8,0,2.9-0.8,2.9-2.6V71.2c0-1.8-1.1-2.6-2.9-2.6h-1.1V88.5z"/>
	<path class="st0" d="M184.3,63.6h6.9v30h-6.9V63.6z"/>
	<path class="st0" d="M194.5,63.6h7.6l5.6,17.7h0.1V63.6h6.7v30h-7.5L201.3,75h-0.1v18.6h-6.7V63.6z"/>
	<path class="st0" d="M217.5,71.8c0-5.9,3.8-8.7,8.9-8.7c4.7,0,8.9,1.7,8.9,7.4v3.3h-6.6v-3c0-1.5-0.6-2.4-2.2-2.4
		c-1.8,0-2.1,1.8-2.1,2.7V86c0,0.8,0,2.7,2,2.7c1.5,0,2.2-0.7,2.2-2.3v-3.9h-2.4v-5.6h9.1v16.5h-6.1v-2.4h-0.1
		c-1.2,2-2.9,2.9-5.3,2.9c-5,0-6.4-4.1-6.4-8.7V71.8z"/>
</g>
</svg>
